# xmcd CD database file generated by Grip 2.94
# 
# Track frame offsets:
#       150
#       13905
#       28375
#       48730
#       69517
#       89052
#       108837
#       128302
#       143800
#       163520
#       184395
# 
# Disc length: 2691 seconds
# 
# Revision: 3
# Processed by: cddbd v1.4b41PL1 Copyright (c) Steve Scherf et al.
# Submitted via: Grip 2.94
# 
DISCID=9b0a810b
DTITLE=Johnny Nocturne Band - Wild and Cool
DYEAR=1900
DGENRE=
TTITLE0=Lemon Twist
TTITLE1=New Kind of Mambo
TTITLE2=Tu ma qui te (Hey! Joli Bon)
TTITLE3=Don't Get Around Much Anymore
TTITLE4=Hey, Mister Jessie
TTITLE5=A Pound of Blues
TTITLE6=At My Front Door
TTITLE7=By The River Ste. Marie
TTITLE8=Cha-bootie
TTITLE9=After the LIghts Go Down Low
TTITLE10=Little Slam
EXTD=
EXTT0=
EXTT1=
EXTT2=
EXTT3=
EXTT4=
EXTT5=
EXTT6=
EXTT7=
EXTT8=
EXTT9=
EXTT10=
PLAYORDER=
